<svg xmlns="http://www.w3.org/2000/svg" width="460" height="350" viewBox="0 0 460 350"><defs><style>.a{fill:#fff;}.b{fill:#b9965f;}</style></defs><title>Zeichenfläche 1</title><path class="a" d="M25.63,293.24c3.42,0,4.22-1,4.22-4.13V270.45c0-3-.72-3.82-4.22-3.86v-1.84c2.34.18,4.18.27,5.57.27,2.79,0,5.39-.27,7.77-.27,8.31,0,12.4,2.38,12.4,7.24,0,3.69-2.79,6.11-8.22,6.88,6.56.81,10.16,3.37,10.16,8.13,0,5.3-4.49,8.18-13.3,8.18-2.47,0-5.26-.22-8.31-.22-1.84,0-3.86.09-6.07.22ZM37.86,278c4.45,0,6.11-1.71,6.11-5.93,0-3.51-1.8-5.17-5.53-5.17-1.48,0-1.62.18-1.62.85V278C37.18,278,37.54,278,37.86,278Zm-1,9.66c0,3.69.81,5.12,3.51,5.12,3.37,0,5-2.11,5-6.38s-2.2-6.34-7.06-6.34c-.45,0-.94,0-1.48,0Z"/><path class="a" d="M61.9,293.33c3.77,0,4.22-1.39,4.22-5.89V270.81c0-3.19-.9-4.36-3.86-4.36H61.9V264.7c3.15.18,6.2.27,9.21.27,3.19,0,8.4,0,15.59-.27v7.86H84.86c-1.12-4.94-3.37-5.57-9.17-5.57-2.25,0-2.52.09-2.52,1.39v9.89h.76c3.55,0,4.85-1.26,5.57-5H81.4c-.18,1.93-.22,3.91-.22,5.89,0,2.29.09,4.36.22,6.25H79.6c-.67-3.82-2.16-5-5.84-5h-.58v8c0,3.19,1.53,4.4,5.12,4.4,5.26,0,7.55-1.53,8.54-6.74H88.5v9.12C81.76,295,76.28,295,72.05,295H69.4c-2.56,0-5.08,0-7.51.22Z"/><path class="a" d="M96.92,293.28c2.2-.18,3.55-1.3,4.49-3.51l10.83-25.53h2.25l10.11,25.44c.94,2.34,1.93,3.42,4.54,3.6v1.84c-2.61-.09-5.21-.13-7.77-.13s-5.12,0-7.73.13v-1.84c2.79-.13,3.91-.36,3.91-1.8a11.38,11.38,0,0,0-.9-3.42l-.9-2.38H105.68l-.76,1.75a10.2,10.2,0,0,0-.9,3.37c0,1.71,1.17,2.47,3.69,2.47v1.84q-2.83-.13-5.53-.13t-5.26.13Zm18-9.8-4-10.47-4.31,10.47Z"/><path class="a" d="M137.72,271.85c0-3.91-.49-5-4.22-5.26v-1.75c2.7.09,5.26.13,7.55.13,2.47,0,5.17,0,8.09-.18v1.8c-3.69.22-4.36,1.21-4.36,4.94v11.68c0,6.65,1.89,9.48,7.73,9.48,3.42,0,6-1.12,7.33-3s1.53-4.36,1.53-7.77V271.62c0-3.55-.9-4.81-4.18-5.12v-1.66c1.66.09,3.42.13,5.3.13,2.2,0,4,0,5.39-.13v1.75c-3.15.36-4.09,1.57-4.09,5V282c0,3.91-.31,6.88-2,9.3-2,2.92-5.8,4.54-10.92,4.54-4.72,0-8.13-1.08-10.61-3.6-1.93-2-2.56-5-2.56-9.39Z"/><path class="a" d="M188,267.35c-.67,0-1.26,0-1.84,0-4.9,0-6.92,1.44-7.68,6.2h-1.8l.36-8.67c3.64.18,7.55.22,11.73.22,6.43,0,12.22,0,17.39-.18l.4,8.63h-1.75c-.76-4.63-2.88-6.25-7.5-6.25-.67,0-1.39,0-2.16.09v22.29c0,2.83,1,3.6,4.63,3.68v1.84c-2.65-.13-5.17-.18-7.55-.18-2.07,0-5,0-8.63.18v-1.84c3.6-.18,4.4-.85,4.4-3.68Z"/><path class="a" d="M222.33,293.28c3.51,0,4.4-.85,4.4-4v-6.07l-7.15-12.94a13,13,0,0,0-1.84-2.74,4.82,4.82,0,0,0-2.61-1v-1.71c2.61.09,4.94.13,7.15.13,2.56,0,5.08,0,7.59-.13v1.75c-2.29,0-3.37.49-3.37,1.66,0,.76.63,2.07,1.71,4.09l4.4,8,4.45-7.33c1.12-1.84,1.75-3.24,1.75-4.31,0-1.57-.94-2-3.28-2.11v-1.75c1.57.09,3.15.09,4.76.09,1.44,0,3.19,0,5.21-.09v1.75a4.45,4.45,0,0,0-3.46,2.47l-8.27,13.62v6.43c0,3.24,1,4.13,4.49,4.13v1.84q-3.44-.13-7.82-.13c-3.15,0-5.84,0-8.13.13Z"/><path class="a" d="M253.42,290.63c0-1.93,0-3.68-.13-5.17h2.07c1.26,5.35,3.91,8,7.91,8,3.42,0,5.48-1.89,5.48-4.85s-2.2-4.13-6.2-5.93c-5.84-2.61-8.76-5.08-8.76-10.07s3.64-8.49,9.08-8.49a10.72,10.72,0,0,1,7.33,2.34l.54-1.93h2.11c0,2.56,0,5.39.18,8.45h-2c-.9-4.27-3.82-6.7-7.55-6.7-2.74,0-4.45,1.71-4.45,4,0,2.56,1.89,3.37,5.12,4.85,6.88,3.15,10.65,5.35,10.65,10.92,0,5.75-4.22,9.57-10.74,9.57-3.33,0-5.84-.76-8.09-2.92l-.54,2.2h-2.11C253.38,293.55,253.42,292.12,253.42,290.63Z"/><path class="a" d="M281.7,293.28c2.2-.18,3.55-1.3,4.49-3.51L297,264.25h2.25l10.11,25.44c.94,2.34,1.93,3.42,4.54,3.6v1.84c-2.61-.09-5.21-.13-7.77-.13s-5.12,0-7.73.13v-1.84c2.79-.13,3.91-.36,3.91-1.8a11.38,11.38,0,0,0-.9-3.42l-.9-2.38H290.46l-.76,1.75a10.2,10.2,0,0,0-.9,3.37c0,1.71,1.17,2.47,3.69,2.47v1.84Q289.65,295,287,295t-5.26.13Zm18-9.8-4-10.47-4.31,10.47Z"/><path class="a" d="M322.38,293.28h.36c3,0,3.77-1.12,3.77-4.49V270.18c0-2.7-.94-3.55-3.91-3.55h-.22v-1.8c2.92.09,5.53.13,7.77.13,1.66,0,4.31,0,7.82-.13v1.8h-.27c-3.24,0-4,.85-4,3.82V286.9c0,4.49,1.12,5.93,5.66,5.93,5,0,7.73-2.07,8.63-6.74h1.84l-.18,9c-4.49,0-9.08-.09-13.75-.09-3.73,0-8.22.09-13.48.18Z"/><path class="a" d="M358.19,280c0-9.26,6.83-15.82,17.12-15.82,5.08,0,9.12,1.44,12.4,4.54a15.79,15.79,0,0,1-.22,22.56c-3.33,3.06-7.46,4.49-12.58,4.49C364.84,295.76,358.19,289.24,358.19,280Zm17.3,13.57c6,0,8.72-4.4,8.72-13.57,0-9-3.19-13.62-9.17-13.62s-8.72,4.45-8.72,13.75C366.32,289,369.51,293.55,375.49,293.55Z"/><path class="a" d="M400.57,293.28c3.42-.4,4.09-1.84,4.09-5.44V268.93l-.54-.67c-.94-1.17-1.93-1.57-3.82-1.66v-1.75a43.38,43.38,0,0,0,4.4.13c1.44,0,3.19,0,5.12-.13l17.93,20.49V271.89c0-3.73-1-5.26-4.18-5.3v-1.75c2.16.09,3.86.13,5.17.13s3,0,5.53-.13v1.75c-3.46.22-4.13,1.75-4.13,5.53v23.59h-2.52l-20.49-24v16.09c0,3.68,1.26,5.39,4.13,5.44v1.84c-3-.13-5.26-.13-6.74-.13a36,36,0,0,0-4,.18Z"/><path class="b" d="M252.12,163.55a6.26,6.26,0,0,0,1.37-3.87c0-2.75-1.72-4.33-4.72-4.33a10.15,10.15,0,0,0-5.47,2l-.37.25.13-.29a1.18,1.18,0,0,0-1.08-1.68h-.59a1.16,1.16,0,0,0-.83.34s-.45.35-2.51.35A1.18,1.18,0,0,0,237,157l-5.59,11.6-1.34,1.69c-1.11,1.4-1.86,2.33-2.24,2.77-2.87,3.39-4.62,4.1-5.58,4.1-.35,0-.68,0-.68-1.17a9.84,9.84,0,0,1,.94-3c.68-1.65,1.54-3.52,2.57-5.57s1.74-3.59,2-4.35a1.18,1.18,0,0,0-.68-1.5,4,4,0,0,0,1.34-2.83c0-2.35-2.15-3.54-6.39-3.54-5.18,0-10,2.47-14.26,7.33s-6.39,9.37-6.39,13.51c0,3.68,2,5.71,5.51,5.71,3,0,6.05-1.61,9.14-4.9v.08c0,2.69,1.69,4.23,4.62,4.23a11,11,0,0,0,6.72-2.75l-.32.66a1.18,1.18,0,0,0,1.07,1.7h4a1.18,1.18,0,0,0,1.07-.69l5.87-12.61a22.22,22.22,0,0,1,4.75-5.63c1.89-1.49,3-1.81,3.64-1.81H247a1,1,0,0,1,.07.47,3.49,3.49,0,0,1-.93,2.6,1.18,1.18,0,0,0,.25,1.87,4.11,4.11,0,0,0,2.06.55A4.49,4.49,0,0,0,252.12,163.55Zm-31.78.92a1.18,1.18,0,0,0-.66.61l-1.85,4a30.52,30.52,0,0,1-4.56,5.77c-2.48,2.55-3.82,2.93-4.41,2.93-.38,0-1.27,0-1.27-2.65,0-3.35,1.32-7,3.93-10.89s5.43-5.62,8.85-5.62a1.36,1.36,0,0,1,1,.42,1.33,1.33,0,0,1,.41,1.05,4.28,4.28,0,0,1-.87,2.38,1.18,1.18,0,0,0,.34,1.67Z"/><ellipse class="b" cx="264.84" cy="146.03" rx="3.71" ry="3.17" transform="translate(20.82 324.7) rotate(-65.08)"/><path class="b" d="M333.48,171.42a1.49,1.49,0,0,0-2.09.24c-.53.66-.92,1.14-1.16,1.42-2.87,3.39-4.62,4.1-5.58,4.1-.35,0-.68,0-.68-1.17a9.85,9.85,0,0,1,.94-3c.67-1.64,1.54-3.51,2.57-5.57s1.72-3.55,2-4.32a1.18,1.18,0,0,0-.67-1.54,4,4,0,0,0,1.34-2.83c0-2.35-2.15-3.54-6.39-3.54-5.18,0-10,2.47-14.26,7.33a28.52,28.52,0,0,0-5.34,8.3c-.9,1.13-1.52,1.89-1.85,2.28-2.87,3.39-4.62,4.1-5.58,4.1-.35,0-.68,0-.68-1.17,0-.3.24-1.73,3.4-7.55,2.51-4.64,3.68-7.68,3.68-9.56,0-1.18-.44-3.94-4.53-3.94-2.33,0-5.29,1.69-9,5.13a6.07,6.07,0,0,0,.13-1.19c0-2.5-1.58-3.94-4.33-3.94-1,0-3.81,0-10,6.14l1.66-3.79a1.18,1.18,0,0,0-1.09-1.66h-.59a1.16,1.16,0,0,0-.83.34s-.45.35-2.51.35A1.19,1.19,0,0,0,271,157l-5.59,11.6-1.34,1.69q-1.66,2.1-2.25,2.79a17.87,17.87,0,0,1-3.78,3.46,6.28,6.28,0,0,1-3.26,1.41c-.36,0-.49,0-.49-.68s.27-2.18,1.58-5.29c1.1-2.62,2.46-5.57,4-8.78s2.53-5.18,2.83-5.9a1.21,1.21,0,0,0,.07-.71,1.19,1.19,0,0,0-1.16-.94h-.59a1.16,1.16,0,0,0-.83.34s-.45.35-2.51.35a1.18,1.18,0,0,0-1.07.68c-.45,1-1,2.13-1.7,3.45s-1.21,2.38-1.54,3.08l-1.22,2.55c-.48,1-.86,1.74-1.11,2.22s-.58,1.17-.89,1.93-.53,1.33-.67,1.74l-.44,1.33a6.83,6.83,0,0,0-.35,1.54c0,.39-.05.81-.05,1.24,0,5,2.84,5.71,4.53,5.71a10.49,10.49,0,0,0,5.44-1.9,21.76,21.76,0,0,0,2-1.42l-.25.51a1.2,1.2,0,0,0-.12.72,1.19,1.19,0,0,0,1.17,1h4a1.18,1.18,0,0,0,1.07-.67l4.74-9.87c7.86-8.78,10.92-10.94,12.06-11.43-.13,1.77-1.67,6.38-7.91,18.18l0,0-1,2a1.22,1.22,0,0,0-.12.72,1.19,1.19,0,0,0,1.17,1h4a1.18,1.18,0,0,0,1.15-.89,18.56,18.56,0,0,1,.9-2l2.36-4.81c1-1.94,1.76-3.62,2.39-5,7.51-8,9.9-9.23,10.55-9.39a2.59,2.59,0,0,1,0,.56c0,.66-.45,2.64-3.46,8.45-3.3,6.37-3.72,8.34-3.72,9.34,0,3.73,3.3,4.13,4.72,4.13,2.76,0,5.67-1.51,8.66-4.49.21,3.28,2.14,5.08,5.49,5.08,3,0,6-1.61,9.14-4.9v.08c0,2.69,1.69,4.23,4.62,4.23,3.09,0,6.36-1.89,9.73-5.6l0,0,1.56-1.95a1.49,1.49,0,0,0-.24-2.1Zm-10.72-6.94a1.18,1.18,0,0,0-.66.61l-1.85,4a30.54,30.54,0,0,1-4.56,5.77c-2.47,2.55-3.82,2.93-4.41,2.93-.38,0-1.27,0-1.27-2.65,0-3.35,1.32-7,3.93-10.89s5.43-5.62,8.85-5.62a1.36,1.36,0,0,1,1,.42,1.33,1.33,0,0,1,.41,1.05,4.28,4.28,0,0,1-.87,2.38,1.18,1.18,0,0,0,.34,1.67Z"/><path class="a" d="M228.21,40.85c-2-3.26-5.16-4.92-9.33-4.92-5.11,0-11.74,2.6-19.72,7.75a22.53,22.53,0,0,0-2.82-5.07,12.69,12.69,0,0,0-10.5-5.4c-6.71,0-15.19,4.74-25.21,14.1-13.23,12.36-19.71,24-19.82,35.5-.07,7.9,2.93,15.78,9.18,24.07-.37,1.51-.68,3-.92,4.47a26.87,26.87,0,0,0-9.48-2.1c-10.28,0-12.44,9.49-12.44,17.46s2.06,14,6.12,18c3.87,3.8,9.54,5.73,16.85,5.73,5.69,0,12.53-1.18,20.37-3.49a1.89,1.89,0,0,0,1.28-2.36h0a1.89,1.89,0,0,0-2.32-1.27l-.63.17c-1.74.48-3.5.9-5.27,1.25a46.34,46.34,0,0,1-9,1c-5.53,0-9.73-1.42-12.48-4.22-2.93-3-4.41-7.7-4.41-14,0-11.19,4.3-12.49,7.53-12.49a16.83,16.83,0,0,1,8.33,2.54,1.69,1.69,0,0,0,.87.22,1.87,1.87,0,0,0,1.87-1.67q.08-.77.2-1.58c4.5,4.81,9.26,9.46,14.1,13.95a1.93,1.93,0,0,0,2.61,0h0a1.93,1.93,0,0,0,.08-2.77l-2.74-2.79c-9.93-10.05-21.18-21.44-21-35.35.11-9.73,5.62-19.73,16.84-30.58,8.23-8,15-12,20-12a7.66,7.66,0,0,1,6.36,3.32c3,3.9,6.25,13.1,4.84,34.82a270.64,270.64,0,0,1-7.13,44.41,1.91,1.91,0,0,0,1.34,2.29h0a1.91,1.91,0,0,0,2.37-1.37,290.38,290.38,0,0,0,8.29-49.31,117.18,117.18,0,0,0-.59-25.47c6.31-4,11.43-6,15.23-6a6,6,0,0,1,5.48,2.76c4.16,6.62.54,23.79-9.44,45.06a1.88,1.88,0,0,0,.88,2.48h0a1.89,1.89,0,0,0,2.52-.87c6.15-12.58,10.51-24.2,12.63-33.72C231.38,53.08,231.09,45.5,228.21,40.85Z"/><path class="b" d="M318.45,41.89A124.27,124.27,0,0,0,230,5.25h-.88A125.13,125.13,0,0,0,120,190a2.05,2.05,0,0,0,2.84.8h0a2,2,0,0,0,.77-2.73A121.17,121.17,0,0,1,229.15,9.35H230a121,121,0,0,1,121,121,87.66,87.66,0,0,1-25.72,62.71A85.86,85.86,0,0,1,298,211.41,83.77,83.77,0,0,1,265.27,218a72.45,72.45,0,0,1-36.19-9.7C219,202.72,210.73,195,202.67,187.67c-5.1-4.63-9.93-9-15-12.8a133.77,133.77,0,0,0,16.17-28.14c8.58-20,18.55-39,38-39,9.43,0,19.22,6,19.22,16.33s-11,14.52-18,14.52a26.58,26.58,0,0,1-9.56-1.77,1.91,1.91,0,0,0-2.42.94,2,2,0,0,0,1,2.6,29.14,29.14,0,0,0,11,2.13c2.67,0,9.54-.32,15.61-3.3,6.29-3.08,10.19-8.89,10.19-15.11,0-14.92-15.61-20.74-26.51-20.74-12.38,0-22.11,5.26-30.4,14.81-7.36,8.47-12.94,19.31-18,31.32a198.51,198.51,0,0,1-11.28,22,37.4,37.4,0,0,0-4.83-2.34,10.34,10.34,0,0,0-2.89-7.36c-2.83-2.95-7.52-4.57-13.18-4.57a30.88,30.88,0,0,0-16.88,5c-3.87,2.61-8.59,7.33-9.14,15A13.78,13.78,0,0,0,139.39,188c3.42,3.67,8.78,5.69,15.08,5.69,10.08,0,20.66-5.12,29.16-14.08,21.58,25.13,45.28,43.79,81.63,43.79a85.93,85.93,0,0,0,34.28-7.14,90.59,90.59,0,0,0,28.63-19.65,93.61,93.61,0,0,0,26.92-66.22A124.27,124.27,0,0,0,318.45,41.89ZM154.67,189.18c-4.89,0-8.91-1.4-11.31-4A8.91,8.91,0,0,1,141,178.3c.34-5.49,4.16-8.93,7.31-10.85a27.94,27.94,0,0,1,14-3.81c5,0,8.8,1.49,10.34,4a31.8,31.8,0,0,0-6.89-.77c-6.75,0-12.91,2.34-16.11,6.1a8.31,8.31,0,0,0-2.11,6.87c.64,3.84,4.37,6.13,10,6.13a24.16,24.16,0,0,0,12-3.37,16.84,16.84,0,0,0,7.61-8.91,20.71,20.71,0,0,1,2.87,2.11A32.32,32.32,0,0,1,154.67,189.18Zm18.61-17.33c-1.1,6.72-8.59,9.75-13.74,9.75-2.6,0-5.5-.79-5.84-3a4.32,4.32,0,0,1,1.21-3.36c2.29-2.68,7.06-4.48,11.86-4.48A19.73,19.73,0,0,1,173.28,171.85Z"/><path class="a" d="M234.67,341.79a7.4,7.4,0,0,1-3,2.44,6.58,6.58,0,0,1-4.1.06,4.84,4.84,0,0,1-3.17-6.45,6.62,6.62,0,0,1,3.48-3.21,5.84,5.84,0,0,1-2.08-3.94,3.81,3.81,0,0,1,2.24-3.57,5.46,5.46,0,0,1,4.68.12,3.65,3.65,0,0,1,1.83,3.83c-.29,1.86-2.09,3-3.62,3.83l3.67,3.89,1.46-2.45c.26-.43.49-.88.77-1.29.16-.24.42-.15.71-.15h1.7l-2.76,4.43a3.84,3.84,0,0,0-.51.81c0,.15,0,.11.11.25l2,2.06,1.79,1.83h-1.64c-.33,0-.95.12-1.22-.05a3.17,3.17,0,0,1-.48-.51l-.78-.83Zm-5.57-5.91c-1.79.93-3.71,2.55-2.86,4.81a3.54,3.54,0,0,0,5,1.68,5.42,5.42,0,0,0,1.1-.79c.18-.17.36-.34.53-.52s.57-.52.56-.62-.35-.36-.42-.44l-2.2-2.31Zm.51-2.22a5.61,5.61,0,0,0,2.67-2.19,2.1,2.1,0,0,0-.72-2.71,2.68,2.68,0,0,0-2.88.18,2.28,2.28,0,0,0-.7,2.7A7.45,7.45,0,0,0,229.61,333.65Z"/><path class="a" d="M261.63,327h1.93l7.36,17.3h-2.4L266.77,340h-8.65l-1.78,4.25H254ZM260,322.83a1.32,1.32,0,0,1,0,2.64A1.32,1.32,0,0,1,260,322.83Zm2.52,6.79h0l-3.59,8.51H266Zm2.32-6.79a1.32,1.32,0,0,1,0,2.64A1.32,1.32,0,0,1,264.88,322.83Z"/><path class="a" d="M303.11,328.89h-5.72v15.4h-2.05v-15.4h-5.72V327h13.49Z"/><path class="a" d="M307.51,327h2.05v7.33h9.24V327h2.05v17.3H318.8v-8.07h-9.24v8.07h-2.05Z"/><path class="a" d="M327.23,327H338.1v1.91h-8.82v5.43h8.24v1.91h-8.24v6.16h9.26v1.91H327.23Z"/><path class="a" d="M355.69,328.89H350v15.4h-2.05v-15.4H342.2V327h13.49Z"/><path class="a" d="M360.08,327h2.05v17.3h-2.05Z"/><path class="a" d="M368.5,327h2.05v7.48h.29l7.87-7.48h3l-8.55,7.89,9,9.41h-3l-8.24-8.8h-.29v8.8H368.5Z"/><path class="a" d="M283.8,330a3,3,0,0,0-1.37-1.21c-1.86-.82-5.09-.34-5.44,2.07a2.54,2.54,0,0,0,1.19,2.64,14.56,14.56,0,0,0,3.13,1.23,9.16,9.16,0,0,1,3,1.46,4.09,4.09,0,0,1,1.44,2.73,4.86,4.86,0,0,1-2.86,5.14,7.77,7.77,0,0,1-7.46-.65,4.41,4.41,0,0,1-1.05-1.11l1.76-1.44a3.62,3.62,0,0,0,1.56,1.44c1.84.9,4.84.59,5.71-1.54a2.71,2.71,0,0,0-.35-2.66,5.84,5.84,0,0,0-2.67-1.38c-1.9-.65-4.21-1.18-5.19-3.14a4.79,4.79,0,0,1,1.17-5.64,7.26,7.26,0,0,1,7-1,5.24,5.24,0,0,1,2.16,1.58Z"/><path class="a" d="M77.91,327H80v7.48h.29L88.13,327h3l-8.55,7.89,9,9.41h-3l-8.24-8.8H80v8.8H77.91Z"/><path class="a" d="M102.4,344.72a8.87,8.87,0,0,1-8.56-6,9.12,9.12,0,0,1,13.27-11,9.22,9.22,0,0,1,4.17,9.69,8.8,8.8,0,0,1-3,5.23A9.2,9.2,0,0,1,102.4,344.72Zm0-1.91a6.76,6.76,0,0,0,6.41-4.58,7.65,7.65,0,0,0-2-8.21,6.93,6.93,0,0,0-8.07-.53,7.44,7.44,0,0,0-3,7.58A6.84,6.84,0,0,0,102.4,342.82Z"/><path class="a" d="M124.71,330a3,3,0,0,0-1.37-1.21c-1.86-.82-5.09-.34-5.44,2.07a2.54,2.54,0,0,0,1.19,2.64,14.56,14.56,0,0,0,3.13,1.23,9.16,9.16,0,0,1,3,1.46,4.09,4.09,0,0,1,1.44,2.73,4.86,4.86,0,0,1-2.86,5.14,7.77,7.77,0,0,1-7.46-.65,4.41,4.41,0,0,1-1.05-1.11l1.76-1.44a3.62,3.62,0,0,0,1.56,1.44c1.84.9,4.84.59,5.71-1.54a2.71,2.71,0,0,0-.35-2.66,5.84,5.84,0,0,0-2.67-1.38c-1.9-.65-4.21-1.18-5.19-3.14a4.79,4.79,0,0,1,1.17-5.64,7.26,7.26,0,0,1,7-1,5.24,5.24,0,0,1,2.16,1.58Z"/><path class="a" d="M132.07,327h3.06L141,340.55h0L147,327h3v17.3h-2.05V329.77h0l-6.21,14.52h-1.25l-6.21-14.52h0v14.52h-2.05Z"/><path class="a" d="M156.32,327H167.2v1.91h-8.82v5.43h8.24v1.91h-8.24v6.16h9.26v1.91H156.32Z"/><path class="a" d="M184.78,328.89h-5.72v15.4H177v-15.4h-5.72V327h13.49Z"/><path class="a" d="M189.18,327h2.05v17.3h-2.05Z"/><path class="a" d="M197.6,327h2.05v7.48h.29l7.87-7.48h3l-8.55,7.89,9,9.41h-3l-8.24-8.8h-.29v8.8H197.6Z"/><path class="b" d="M404.62,312.78H55.38a1.91,1.91,0,1,1,0-3.82H404.62a1.91,1.91,0,1,1,0,3.82Z"/><path class="b" d="M9.24,275.76A4.21,4.21,0,0,1,13.45,280a4.26,4.26,0,0,1-4.24,4.24,4.22,4.22,0,1,1,0-8.45Z"/><path class="b" d="M450.79,275.76A4.21,4.21,0,0,1,455,280a4.26,4.26,0,0,1-4.24,4.24,4.22,4.22,0,1,1,0-8.45Z"/></svg>